# xmcd
#
# Track frame offsets:
#	150
#	18066
#	32826
#	67342
#	98220
#	119052
#	144895
#	167613
#	194463
#	217091
#	261209
#	298243
#	327135
#	346385
#
# Disc length: 4794 seconds
#
# Revision: 1
# Processed by: cddbd v1.5.2PL0 Copyright (c) Steve Scherf et al.
# Submitted via: audiograbber 1.83.01
#
DISCID=dd12b80e
DTITLE=Катя Чехова - Позвони
DYEAR=2006
DGENRE=House
TTITLE0=Позвони (BeeJo love mix)
TTITLE1=Ночь на нуле
TTITLE2=Крылья
TTITLE3=Я - робот (версия Агента Смита)
TTITLE4=Волосы - река
TTITLE5=Таю (Виртуальная любовь)
TTITLE6=Снегом
TTITLE7=Ветром
TTITLE8=Холодно
TTITLE9=Я - робот (Sound Shocking and Zoomer Megamix)
TTITLE10=Крылья (Sound Shocking mix)
TTITLE11=Таю (Виртуальная любовь) Карась mix
TTITLE12=Я - робот (Dos Buratinos Giuseppe mix)
TTITLE13=ExtraMix Limired
EXTD=
EXTT0=
EXTT1=
EXTT2=
EXTT3=
EXTT4=
EXTT5=
EXTT6=
EXTT7=
EXTT8=
EXTT9=
EXTT10=
EXTT11=
EXTT12=
EXTT13=
PLAYORDER=
